<svg id="Layer_1" data-name="Layer 1" xmlns="http://www.w3.org/2000/svg" viewBox="0 0 620.66 79.05"><defs><style>.cls-1{fill:#fff;}</style></defs><title>xhema-white</title><path class="cls-1" d="M117.61,119.06a13.46,13.46,0,0,0,8.14,3v2.11H93.84V122a13.91,13.91,0,0,0,4.72-.68,4.52,4.52,0,0,0,1.89-1.57,3.68,3.68,0,0,0,.74-2.13,7.38,7.38,0,0,0-.49-2.62,45.11,45.11,0,0,0-3-5L85.07,90.22,69.5,110.94a31.36,31.36,0,0,0-3,4.41,5.61,5.61,0,0,0-.49,2.31,3.72,3.72,0,0,0,1.48,3q1.48,1.2,5.65,1.37v2.11H46.8V122a15.61,15.61,0,0,0,4.82-1.2,27.69,27.69,0,0,0,6.47-4,46.2,46.2,0,0,0,7-7.68l17.54-23L68,63.92q-6-9-10.14-11.87a17.75,17.75,0,0,0-9.59-3V47H82.66v2.11q-4.39.17-6,1.48A3.73,3.73,0,0,0,75,53.45q0,2.11,2.63,6.15L89,77.3l13.21-17.36a29.88,29.88,0,0,0,2.82-4.21,5.54,5.54,0,0,0,.52-2.33,3.5,3.5,0,0,0-.66-2.11,4.42,4.42,0,0,0-2.08-1.68,18.46,18.46,0,0,0-5.21-.54V47H124v2.11a15.07,15.07,0,0,0-5.1,1,20.45,20.45,0,0,0-5.43,3.53,63,63,0,0,0-7,8.2L91.81,81.4l16,24.71q6.63,10.25,9.84,13Zm131.09-.83a5.05,5.05,0,0,0,2.25,2.45,10.1,10.1,0,0,0,5,1.37h2.63v2.11h-31.8V122h2.63q4.55,0,6.63-2.79,1.37-1.82,1.37-8.77V87H202.92v23.51q0,5.86.71,7.74a5,5,0,0,0,2.3,2.45,9.8,9.8,0,0,0,5,1.37h2.69v2.11H181.75V122h2.63q4.6,0,6.69-2.79,1.32-1.82,1.32-8.77V60.68q0-5.92-.71-7.8a5.06,5.06,0,0,0-2.25-2.45,10.09,10.09,0,0,0-5-1.37H181.8V47h31.85v2.11H211a10.13,10.13,0,0,0-5,1.31,4.88,4.88,0,0,0-2.36,2.76q-.66,1.85-.66,7.54v22h34.54V60.68q0-5.92-.71-7.8a5,5,0,0,0-2.3-2.45,9.8,9.8,0,0,0-5-1.37h-2.63V47h31.8v2.11H256a10.13,10.13,0,0,0-5,1.31,4.73,4.73,0,0,0-2.38,2.76Q248,55,248,60.68v49.81q0,5.86.71,7.74Zm88.9-.71a3.53,3.53,0,0,0,1.53,1.76,9,9,0,0,0,4.17.65h12.61a32.93,32.93,0,0,0,9.16-.91,13.58,13.58,0,0,0,5.48-3.59,43.93,43.93,0,0,0,7-10.65h2.19l-6.41,19.35H316V122h2.63a10.11,10.11,0,0,0,5-1.31A4.73,4.73,0,0,0,326,118q.63-1.82.63-7.46V60.39q0-7.34-1.43-9-2-2.28-6.58-2.28H316V47h57.29l.82,16.91H372q-1.15-6.09-2.55-8.37A8.83,8.83,0,0,0,365.28,52q-2.19-.85-7.73-.85H337.16V81.68H353.5q6.36,0,8.5-2,2.85-2.62,3.18-9.22h2V97.34h-2a30.7,30.7,0,0,0-1.53-7.23A7,7,0,0,0,360.4,87a16,16,0,0,0-6.91-1.14H337.16v25.45q0,5.12.44,6.23Zm185.94,2.13q2,2.39,6.41,2.39h2.58v2.11H501V122h2.63q4.77,0,6.69-3,1.21-1.82,1.21-8.31V59.2l-28.67,65H481l-28.73-65v51.57q0,7.12,1.48,8.88,2,2.39,6.41,2.39h2.63v2.11H436.91V122h2.63q4.71,0,6.69-3,1.21-1.82,1.21-8.31V60.34q0-5.12-1.1-7.4a6.19,6.19,0,0,0-2.82-2.76q-2.06-1.11-6.61-1.11V47H458l27,60.4L511.48,47h21.05v2.11H530q-4.77,0-6.74,3Q522,53.85,522,60.34v50.44q0,7.12,1.53,8.88Zm114.61,4.5V122q4.44-.23,6-1.54a4,4,0,0,0,1.56-3.19q0-2.5-2.19-7.91L639,98.31H610.25l-5,12.18a19.86,19.86,0,0,0-1.86,6.72,3.94,3.94,0,0,0,1.62,3.1q1.62,1.34,7,1.74v2.11H588.54V122q4.66-.85,6-2.22,2.8-2.73,6.2-11.1l26.15-63.53h1.92l25.88,64.21q3.12,7.74,5.67,10a11.31,11.31,0,0,0,7.1,2.59v2.11ZM624.88,62.9,612,94.09H637.5Z" transform="translate(-46.8 -45.15)"/></svg>